<?xml version="1.0" encoding="UTF-8" standalone="no"?>
<!-- Created with Inkscape (http://www.inkscape.org/) -->

<svg
   width="66.237335mm"
   height="63.367161mm"
   viewBox="0 0 66.237335 63.367161"
   version="1.1"
   id="svg5"
   xml:space="preserve"
   inkscape:version="1.2 (dc2aedaf03, 2022-05-15)"
   sodipodi:docname="luna.svg"
   xmlns:inkscape="http://www.inkscape.org/namespaces/inkscape"
   xmlns:sodipodi="http://sodipodi.sourceforge.net/DTD/sodipodi-0.dtd"
   xmlns="http://www.w3.org/2000/svg"
   xmlns:svg="http://www.w3.org/2000/svg"><sodipodi:namedview
     id="namedview7"
     pagecolor="#ffffff"
     bordercolor="#000000"
     borderopacity="0.25"
     inkscape:showpageshadow="2"
     inkscape:pageopacity="0.0"
     inkscape:pagecheckerboard="0"
     inkscape:deskcolor="#d1d1d1"
     inkscape:document-units="mm"
     showgrid="false"
     inkscape:zoom="1.0129245"
     inkscape:cx="-973.41903"
     inkscape:cy="-286.79334"
     inkscape:window-width="1920"
     inkscape:window-height="991"
     inkscape:window-x="-9"
     inkscape:window-y="-9"
     inkscape:window-maximized="1"
     inkscape:current-layer="layer1" /><defs
     id="defs2"><inkscape:path-effect
       effect="skeletal"
       id="path-effect9290"
       is_visible="true"
       lpeversion="1"
       pattern="M 0,4.9921382 C 0,2.2364779 2.2364779,0 4.9921382,0 c 2.7556604,0 4.9921383,2.2364779 4.9921383,4.9921382 0,2.7556604 -2.2364779,4.9921383 -4.9921383,4.9921383 C 2.2364779,9.9842765 0,7.7477986 0,4.9921382 Z"
       copytype="single_stretched"
       prop_scale="0.062331298"
       scale_y_rel="false"
       spacing="0"
       normal_offset="0"
       tang_offset="0"
       prop_units="false"
       vertical_pattern="false"
       hide_knot="false"
       fuse_tolerance="0" /></defs><g
     inkscape:label="Layer 1"
     inkscape:groupmode="layer"
     id="layer1"
     transform="translate(313.14472,90.154256)"><g
       id="g10270"
       transform="translate(-245.53491)"
       inkscape:export-filename="..\Documents\GitHub\pet-breath-monitor\src\assets\svg\logo.svg"
       inkscape:export-xdpi="96"
       inkscape:export-ydpi="96"><path
         style="fill:none;fill-opacity:1;stroke:#01233e;stroke-width:1.565;stroke-linecap:round;stroke-linejoin:round;stroke-dasharray:none;stroke-opacity:1;stop-color:#000000"
         d="m -4.7142105,-58.818747 h -3.4811703 l -1.1427822,-8.423937 -1.338688,8.423937 h -52.645111"
         id="path10104"
         sodipodi:nodetypes="ccccc" /><path
         style="fill:#01233e;fill-opacity:1;stroke:none;stroke-width:0.365;stroke-linecap:square;stroke-linejoin:bevel;stroke-dasharray:none;stop-color:#000000"
         d="m -46.56021,-77.121471 c -17.174385,6.660787 -14.366404,26.904357 -14.366404,26.904357 h -1.687192 c 0,0 -0.837627,-0.09235 -0.837627,0.837626 0,0.929978 2.655421,13.528778 17.805448,20.32017 15.150026,6.791391 31.214279,-3.265092 34.936483,-8.946352 l -1.797888,-1.038011 c 0,0 -6.297531,6.824814 -12.358048,8.1639 0,0 -4.225047,-4.14424 -2.909049,-9.038829 1.315998,-4.89459 7.018657,0.877332 11.913246,-5.379431 0,0 2.816698,-2.816698 2.470383,-5.541045 0,0 3.6247666,-3.324627 0.161614,-6.995569 l 0.47906,-1.883877 c 0,0 -2.791654,-1.681522 -2.775328,-4.505827 0.01633,-2.824304 -1.882604,-8.594205 -12.964693,-11.965007 l 0.883853,-12.719088 c 0,0 -0.03265,-1.43664 -2.350867,-1.224409 -2.318215,0.212231 -13.207294,7.656642 -16.602991,13.011392 z"
         id="path358" /><path
         style="fill:#fdfdfd;fill-opacity:1;stroke:none;stroke-width:0.264999;stroke-linecap:round;stroke-linejoin:bevel;stroke-dasharray:none;stop-color:#000000"
         d="m -28.50752,-73.603545 c 0,0 0.95409,4.677455 -3.81689,8.367009 -4.77098,3.689553 -9.174909,2.54677 -11.558426,7.80357 0,0 -6.726089,2.448818 -8.228032,10.480944 -1.501942,8.032126 3.787507,14.594961 8.032127,15.966299 4.244619,1.371339 14.095091,1.992636 16.926255,1.268392 2.831164,-0.724244 -1.155861,1.115125 -2.984313,-5.741568 -1.828451,-6.856693 3.134489,-8.783097 3.88546,-8.783097 0.750971,0 6.301627,1.40399 9.59937,-3.591601 3.297743,-4.995591 1.665197,-4.473176 1.240735,-5.3221 -0.424462,-0.848924 0.03265,-1.567244 0.620367,-1.469291 0.587717,0.09795 1.930837,0.584482 2.024357,-0.979528 0.09352,-1.56401 -4.440525,-3.428347 -4.99559,-7.836221 -0.555066,-4.407874 -1.789129,-7.424169 -10.74542,-10.162808 z"
         id="path3734" /><path
         style="fill:none;stroke:#01233e;stroke-width:1.965;stroke-linecap:round;stroke-linejoin:bevel;stroke-dasharray:none;stroke-opacity:1;stop-color:#000000"
         d="m -62.613806,-50.217114 c 0.724986,1.127756 8.429915,22.141857 24.195896,21.726908 15.929331,-0.419249 22.219561,-4.896199 26.809464,-10.034469"
         id="path969"
         sodipodi:nodetypes="csc" /><path
         style="fill:#fcfdfb;fill-opacity:1;stroke:none;stroke-width:0.265;stroke-linecap:round;stroke-linejoin:bevel;stroke-dasharray:none;stop-color:#000000"
         d="m -39.572295,-68.96292 c 0,0 -0.824783,-6.264799 2.476905,-11.162435 3.301688,-4.897638 4.705678,-4.995592 4.999538,-3.950761 0.293856,1.044829 -0.06406,14.227445 -7.476443,15.113196 z"
         id="path1067" /><path
         id="path1069"
         style="fill:#badfd7;fill-opacity:1;stroke:none;stroke-width:0.264999;stroke-linecap:round;stroke-linejoin:bevel;stroke-dasharray:none;stop-color:#000000"
         d="m -36.333183,-81.217265 c -0.242405,0.334977 -0.495461,0.696209 -0.762227,1.091923 -3.301685,4.897631 -2.476852,11.162626 -2.476852,11.162626 1.640581,-0.196043 2.935433,-0.994732 3.954281,-2.130619 -3.713471,-3.074011 -0.729299,-10.090846 -0.715202,-10.12393 z" /><path
         id="path9918"
         style="fill:#cdf1ee;fill-opacity:1;stroke:none;stroke-width:0.264999;stroke-linecap:round;stroke-linejoin:bevel;stroke-dasharray:none;stroke-opacity:1;stop-color:#000000"
         d="m -40.81508,-61.016431 c -1.212707,0.749205 -2.257025,1.79573 -3.067513,3.583244 0,0 -6.726497,2.448896 -8.228438,10.481014 -0.98996,5.294135 0.970969,9.94937 3.638021,12.901021 l 0.91674,0.920874 c 0.01252,0.01145 0.02518,0.02273 0.03772,0.03411 -0.01968,-0.05632 -4.587423,-13.162372 4.647779,-17.871777 5.685291,-2.899163 4.113228,-7.17741 2.055688,-10.048483 z" /><path
         id="path8342"
         style="fill:#fbb263;fill-opacity:1;stroke:none;stroke-width:0.264999;stroke-linecap:round;stroke-linejoin:bevel;stroke-dasharray:none;stop-color:#000000"
         d="m -28.567249,-71.100053 c -0.305122,1.667904 -1.224589,3.905025 -3.757393,5.863725 -4.770975,3.689549 -9.174436,2.546346 -11.557951,7.803141 0,0 -0.849276,3.657261 1.011825,6.465239 1.861101,2.807975 8.913764,6.040344 16.717326,0.914156 7.803562,-5.126189 6.110061,-7.759565 5.160925,-10.887191 0,0 0.879309,0.260065 0.422196,-3.127975 -0.39882,-2.955985 -5.197787,-6.016506 -7.996928,-7.031095 z" /><path
         style="fill:#002335;fill-opacity:1;stroke:none;stroke-width:0.264999;stroke-linecap:round;stroke-linejoin:bevel;stroke-dasharray:none;stop-color:#000000"
         d="m -20.374173,-56.771785 c 0,0 -0.08979,-0.628531 -0.86525,-0.74281 -0.775459,-0.114276 -1.34685,0.693833 -2.954908,0.636693 -1.608058,-0.05714 -3.02021,-1.248897 -3.591602,-3.069185 l -1.910078,0.04081 c 0,0 -1.395827,-0.350997 -1.640709,-1.387664 h 3.673228 c 0,0 0.481601,-2.391678 2.799817,-2.734512 2.318215,-0.342835 4.277272,1.452968 4.489502,7.256668 z"
         id="path3736" /><path
         style="fill:#fefcf9;fill-opacity:1;stroke:none;stroke-width:0.264999;stroke-linecap:round;stroke-linejoin:bevel;stroke-dasharray:none;stop-color:#000000"
         d="m -24.138176,-58.204057 c 0,0 -1.281367,-3.070661 0.784981,-4.386662 0,0 -2.04326,-0.519472 -3.036031,1.142841 -0.99277,1.662313 1.096666,3.440067 2.25105,3.243821 z"
         id="path3738" /><path
         id="path8470"
         style="fill:#cdf1ee;fill-opacity:1;stroke:none;stroke-width:0.264999;stroke-linecap:round;stroke-linejoin:bevel;stroke-dasharray:none;stop-color:#000000"
         d="m -17.463017,-46.781641 c -6.184567,2.111398 -10.106023,0.145304 -15.691032,1.853117 -5.587214,1.708488 -7.110677,6.926192 -7.110677,6.926192 2.031714,-2.631993 5.309754,-2.978112 5.309754,-2.978112 -0.300139,3.624763 1.731677,6.27972 1.731677,6.27972 -0.02309,-1.754663 0.946712,-2.816883 0.946712,-2.816883 0.438666,1.6854 2.347144,2.772958 2.347144,2.772958 l 0.0015,-0.0016 c -0.072,-0.227491 -0.142085,-0.462537 -0.208773,-0.712618 -1.828449,-6.856686 3.134581,-8.782926 3.885551,-8.782926 0.632298,0 4.666769,0.993972 7.894609,-1.673283 l 0.864546,-0.834574 c 0.0096,-0.01066 0.01936,-0.0213 0.02894,-0.03204 z" /><path
         style="fill:#fbb263;fill-opacity:1;stroke:none;stroke-width:0.264999;stroke-linecap:round;stroke-linejoin:bevel;stroke-dasharray:none;stop-color:#000000"
         d="m -26.966418,-71.618003 c 0.03809,-0.139664 1.565686,0.02481 3.31569,1.077586 0,0 0,1e-6 0,1e-6 0.32803,0.197555 0.655614,0.428508 0.973626,0.694764 2.135343,1.787819 2.452897,3.956589 2.302931,3.999576 -0.165115,0.04733 -0.828698,-1.952808 -2.702948,-3.521763 -0.295272,-0.247175 -0.595179,-0.467129 -0.893502,-0.662017 0,0 -10e-7,0 -10e-7,0 -1.600814,-1.046688 -3.033886,-1.448483 -2.995796,-1.588147 z"
         id="path9288"
         inkscape:path-effect="#path-effect9290"
         inkscape:original-d="m -26.966418,-71.618003 c 0.881764,0.240481 5.336137,1.389857 6.592245,5.771922"
         class="UnoptimicedTransforms"
         sodipodi:nodetypes="cc" /><path
         style="fill:#cdf1ee;fill-opacity:1;stroke:#01233e;stroke-width:1.565;stroke-linecap:round;stroke-linejoin:bevel;stroke-dasharray:none;stroke-opacity:1;stop-color:#000000"
         d="m -66.827309,-61.932718 v 6.083604"
         id="path10031"
         sodipodi:nodetypes="cc" /><path
         style="fill:#cdf1ee;fill-opacity:1;stroke:#01233e;stroke-width:1.565;stroke-linecap:round;stroke-linejoin:bevel;stroke-dasharray:none;stroke-opacity:1;stop-color:#000000"
         d="m -64.089224,-61.512481 v 7.803637"
         id="path10102"
         sodipodi:nodetypes="cc" /><path
         style="fill:none;fill-opacity:1;stroke:#01233e;stroke-width:1.565;stroke-linecap:round;stroke-linejoin:round;stroke-dasharray:none;stroke-opacity:1;stop-color:#000000"
         d="m -2.1549607,-55.898375 -1.3060366,-10.709499 -1.7631498,14.823516"
         id="path10162" /><circle
         style="fill:#01233e;fill-opacity:1;stroke:none;stroke-width:0.445216;stroke-linecap:round;stroke-linejoin:round;stroke-dasharray:none;stroke-opacity:1;stop-color:#000000"
         id="path10216"
         cx="-61.277611"
         cy="-69.930107"
         r="1.0774806" /><circle
         style="fill:#01233e;fill-opacity:1;stroke:none;stroke-width:0.445216;stroke-linecap:round;stroke-linejoin:round;stroke-dasharray:none;stroke-opacity:1;stop-color:#000000"
         id="circle10218"
         cx="-58.355354"
         cy="-75.235878"
         r="1.0774806" /><circle
         style="fill:#01233e;fill-opacity:1;stroke:none;stroke-width:0.445216;stroke-linecap:round;stroke-linejoin:round;stroke-dasharray:none;stroke-opacity:1;stop-color:#000000"
         id="circle10220"
         cx="-54.404594"
         cy="-79.904961"
         r="1.0774806" /><circle
         style="fill:#01233e;fill-opacity:1;stroke:none;stroke-width:0.445216;stroke-linecap:round;stroke-linejoin:round;stroke-dasharray:none;stroke-opacity:1;stop-color:#000000"
         id="circle10222"
         cx="-49.702862"
         cy="-83.365959"
         r="1.0774806" /><circle
         style="fill:#01233e;fill-opacity:1;stroke:none;stroke-width:0.445216;stroke-linecap:round;stroke-linejoin:round;stroke-dasharray:none;stroke-opacity:1;stop-color:#000000"
         id="circle10224"
         cx="-44.886852"
         cy="-85.814781"
         r="1.0774806" /><circle
         style="fill:#01233e;fill-opacity:1;stroke:none;stroke-width:0.445216;stroke-linecap:round;stroke-linejoin:round;stroke-dasharray:none;stroke-opacity:1;stop-color:#000000"
         id="circle10226"
         cx="-39.515778"
         cy="-87.218773"
         r="1.0774806" /><circle
         style="fill:#01233e;fill-opacity:1;stroke:none;stroke-width:0.445216;stroke-linecap:round;stroke-linejoin:round;stroke-dasharray:none;stroke-opacity:1;stop-color:#000000"
         id="circle10228"
         cx="-23.360882"
         cy="-85.831108"
         r="1.0774806" /><circle
         style="fill:#01233e;fill-opacity:1;stroke:none;stroke-width:0.445216;stroke-linecap:round;stroke-linejoin:round;stroke-dasharray:none;stroke-opacity:1;stop-color:#000000"
         id="circle10230"
         cx="-18.33264"
         cy="-83.374123"
         r="1.0774806" /><circle
         style="fill:#01233e;fill-opacity:1;stroke:none;stroke-width:0.445216;stroke-linecap:round;stroke-linejoin:round;stroke-dasharray:none;stroke-opacity:1;stop-color:#000000"
         id="circle10232"
         cx="-13.610388"
         cy="-79.880478"
         r="1.0774806" /><circle
         style="fill:#01233e;fill-opacity:1;stroke:none;stroke-width:0.445216;stroke-linecap:round;stroke-linejoin:round;stroke-dasharray:none;stroke-opacity:1;stop-color:#000000"
         id="circle10234"
         cx="-9.6320219"
         cy="-75.129768"
         r="1.0774806" /><circle
         style="fill:#01233e;fill-opacity:1;stroke:none;stroke-width:0.445216;stroke-linecap:round;stroke-linejoin:round;stroke-dasharray:none;stroke-opacity:1;stop-color:#000000"
         id="circle10236"
         cx="-6.9076748"
         cy="-69.884048"
         r="1.0774806" /><circle
         style="fill:#01233e;fill-opacity:1;stroke:none;stroke-width:0.445216;stroke-linecap:round;stroke-linejoin:round;stroke-dasharray:none;stroke-opacity:1;stop-color:#000000"
         id="circle10238"
         cx="-5.9899392"
         cy="-47.976593"
         r="1.0774806" /><circle
         style="fill:#01233e;fill-opacity:1;stroke:none;stroke-width:0.445216;stroke-linecap:round;stroke-linejoin:round;stroke-dasharray:none;stroke-opacity:1;stop-color:#000000"
         id="circle10240"
         cx="-8.4877348"
         cy="-42.866726"
         r="1.0774806" /></g></g></svg>
